<svg width="3361" height="1276" viewBox="0 0 3361 1276" fill="none" xmlns="http://www.w3.org/2000/svg">
<path fill-rule="evenodd" clip-rule="evenodd" d="M571.786 317.091C614.933 235.786 498.242 42.8063 416.285 0V0.085369L33.6524 735.802C-13.0611 816.06 -20.784 983.575 73.4554 1107.2C151.621 1209.74 275.59 1276 415.168 1276C577.826 1116.45 557.815 941.639 524.125 864.46C553.103 935.054 497.99 1013.42 415.168 1013.42C328.604 1013.42 272.213 927.778 310.726 854.803L571.786 317.091Z" fill="url(#paint0_linear_1176_16)"/>
<path d="M415.168 1276C544.599 1276 660.61 1219.02 739.122 1128.98C851.059 1000.6 840.815 828.476 780.869 735.802C723.821 647.609 630.425 556.753 537.028 456.239L466.981 603.144C427.887 677.615 479.686 780.125 519.336 854.305C521.132 857.666 522.727 861.054 524.125 864.46C557.815 941.639 577.826 1116.45 415.168 1276Z" fill="#528247"/>
<path d="M1601.86 1121.5H1507.95L1581.24 704.5H1675.16L1601.86 1121.5Z" fill="#2C2C2C"/>
<path d="M2421.36 867.176C2434.34 867.176 2446.17 869.658 2456.86 874.622C2467.93 879.587 2476.9 886.46 2483.78 895.243C2491.03 904.026 2496.18 914.337 2499.24 926.174C2502.29 937.63 2502.67 949.85 2500.38 962.834L2489.5 1025.27C2487.21 1038.63 2482.44 1051.24 2475.19 1063.07C2468.31 1074.53 2459.73 1084.65 2449.42 1093.43C2439.11 1102.22 2427.66 1109.09 2415.06 1114.05C2402.46 1119.02 2389.67 1121.5 2376.69 1121.5H2089.07L2100.68 1027.56H2393.3C2394.83 1027.56 2395.59 1026.8 2395.59 1025.27L2406.47 962.834C2406.85 961.688 2406.28 961.115 2404.75 961.115H2207.19C2193.83 961.115 2181.61 958.633 2170.54 953.669C2159.85 948.705 2150.88 941.831 2143.63 933.048C2136.76 924.265 2131.79 914.146 2128.74 902.69C2126.07 890.852 2125.88 878.25 2128.17 864.885L2139.05 800.731C2141.34 787.747 2146.11 775.337 2153.36 763.499C2160.62 751.661 2169.21 741.541 2179.13 733.14C2189.44 724.357 2200.7 717.484 2212.92 712.519C2225.52 707.173 2238.5 704.5 2251.86 704.5H2529.59L2512.98 798.44H2235.82C2234.68 798.44 2233.72 799.203 2232.96 800.731L2221.51 864.885C2221.51 866.412 2222.08 867.176 2223.23 867.176H2421.36Z" fill="#2C2C2C"/>
<path d="M3022.91 705.073L3116.82 704.5L3059.56 1027.56H3360.76L3344.16 1121.5H2949.61L3022.91 705.073Z" fill="#2C2C2C"/>
<path fill-rule="evenodd" clip-rule="evenodd" d="M1797.24 798.44H2084.7L2101.31 705.073H1719.93L1646.63 1121.5H2031.75L2045.79 1027.56H1757.15L1769.18 959.397L1785.78 865.457L1797.24 798.44ZM1769.18 959.397H2055.94L2072.55 865.457H1862.62C1855.72 865.457 1849.15 868.428 1844.59 873.611L1769.18 959.397Z" fill="#2C2C2C"/>
<path d="M1438.41 705.073C1465.13 705.073 1486.13 714.429 1501.4 733.14C1516.67 751.47 1522.02 774 1517.44 800.731L1477.35 1025.84C1475.06 1039.21 1470.29 1051.62 1463.03 1063.07C1456.16 1074.53 1447.57 1084.65 1437.27 1093.43C1427.34 1102.22 1416.08 1109.09 1403.48 1114.05C1390.88 1119.02 1377.9 1121.5 1364.54 1121.5H1041L1087.91 855H1181.57L1150.95 1027.56H1381.15C1382.29 1027.56 1383.25 1026.99 1384.01 1025.84L1423.52 800.731V800.158L1422.95 799.012C1422.57 798.631 1422.19 798.44 1421.8 798.44H1097.86L1114.3 705.073H1438.41Z" fill="#2C2C2C"/>
<path fill-rule="evenodd" clip-rule="evenodd" d="M2953.83 798.441H2666.37L2654.91 865.459L2638.31 959.398L2626.28 1027.56H2914.92L2898.88 1121.5H2515.76L2589.06 705.074H2970.44L2953.83 798.441Z" fill="#2C2C2C"/>
<path d="M2925.07 959.398L2941.68 865.459H2731.75C2724.85 865.459 2718.28 868.43 2713.73 873.613L2638.31 959.398H2925.07Z" fill="#528247"/>
<path d="M1270.3 283.453L1219.34 571H1126L1199.3 154H1306.95L1495.92 441.547L1546.89 154H1640.23L1566.93 571H1459.28L1270.3 283.453Z" fill="#528247"/>
<path d="M2340.25 283.453L2289.29 571H2195.95L2269.24 154H2376.9L2565.87 441.547L2616.84 154H2710.18L2636.88 571H2529.22L2340.25 283.453Z" fill="#528247"/>
<path d="M3119.42 154.573C3146.14 154.573 3167.14 163.929 3182.41 182.64C3197.68 201.734 3203.02 224.455 3198.44 250.804L3158.93 475.342C3156.64 488.707 3151.87 501.118 3144.61 512.574C3137.74 524.03 3129.15 534.15 3118.84 542.933C3108.54 551.716 3097.08 558.589 3084.48 563.554C3071.89 568.518 3059.1 571 3046.12 571H2773.54C2760.18 571 2747.96 568.518 2736.89 563.554C2726.2 558.589 2717.23 551.716 2709.98 542.933C2703.11 534.15 2698.14 524.03 2695.09 512.574C2692.42 501.118 2692.23 488.707 2694.52 475.342L2734.03 250.804C2736.32 237.438 2740.9 225.027 2747.77 213.571C2755.03 201.734 2763.81 191.423 2774.11 182.64C2784.42 173.857 2795.68 166.984 2807.9 162.019C2820.5 157.055 2833.48 154.573 2846.84 154.573H3119.42ZM3104.53 250.804C3104.53 249.658 3104.53 249.085 3104.53 249.085C3104.15 248.703 3103.57 248.512 3102.81 248.512H2830.23C2828.71 248.512 2827.94 249.276 2827.94 250.804L2787.86 475.342C2787.86 476.869 2788.62 477.633 2790.15 477.633H3062.72C3064.25 477.633 3065.02 476.869 3065.02 475.342L3104.53 250.804Z" fill="#528247"/>
<path d="M1621 571L1898.67 154H2029.92L2160 571H2046.25L2020.71 483.979H1864.33L1911.5 402.214H1996.71L1950.58 245.022L1742.33 571H1621Z" fill="#528247"/>
<defs>
<linearGradient id="paint0_linear_1176_16" x1="412.5" y1="100.574" x2="412.5" y2="1275.83" gradientUnits="userSpaceOnUse">
<stop stop-color="#D5D170"/>
<stop offset="1" stop-color="#7D9D3A"/>
</linearGradient>
</defs>
</svg>
