<svg xmlns="http://www.w3.org/2000/svg" width="107" height="107" viewBox="0 0 107 107" fill="none"><metadata><rdf:RDF xmlns:rdf="http://www.w3.org/1999/02/22-rdf-syntax-ns#" xmlns:dc="http://purl.org/dc/elements/1.1/"><rdf:Description><dc:creator>RealFaviconGenerator</dc:creator><dc:source>https://realfavicongenerator.net</dc:source></rdf:Description></rdf:RDF></metadata><path d="M0 53.5C0 23.9528 23.9528 0 53.5 0C83.0472 0 107 23.9528 107 53.5C107 83.0472 83.0472 107 53.5 107C23.9528 107 0 83.0472 0 53.5Z" fill="#F5F9FA"></path><path fill-rule="evenodd" clip-rule="evenodd" d="M63.7329 31.3773C66.5048 26.1524 59.0082 13.7509 53.7432 11V11.0055L29.1619 58.2851C26.1609 63.4427 25.6648 74.2078 31.719 82.1523C36.7405 88.7417 44.7046 93 53.6714 93C64.1209 82.7471 62.8354 71.5129 60.6711 66.5531C62.5327 71.0897 58.9921 76.1256 53.6714 76.1259C48.1103 76.1259 44.4876 70.6221 46.9618 65.9325L63.7329 31.3773Z" fill="url(#paint0_linear_1052_39)"></path><path d="M53.6714 93C61.9863 93 69.4392 89.3385 74.483 83.552C81.6741 75.3019 81.016 64.2406 77.1649 58.2851C73.5 52.6175 67.5 46.7788 61.5 40.3194L57 49.76C54.4885 54.5458 57.8162 61.1334 60.3634 65.9005C60.4788 66.1164 60.5812 66.3342 60.6711 66.5531C62.8354 71.5129 64.1209 82.7471 53.6714 93Z" fill="#528247"></path><defs>
<linearGradient id="paint0_linear_1052_39" x1="53.5" y1="17.4632" x2="53.5" y2="92.9894" gradientUnits="userSpaceOnUse">
<stop stop-color="#D5D170"></stop>
<stop offset="1" stop-color="#7D9D3A"></stop>
</linearGradient>
</defs></svg>